<svg width="920" height="300" viewBox="0 0 920 300" fill="none" xmlns="http://www.w3.org/2000/svg">
<g clip-path="url(#clip0_4_2)">
<rect width="920" height="300" rx="10" fill="white"/>
<path d="M84 118.981H96.0375C99.3188 118.981 102.131 120.172 104.475 122.553C106.838 124.916 108.019 127.738 108.019 131.019V149.019C108.019 152.262 106.838 155.075 104.475 157.456C102.131 159.819 99.3188 161 96.0375 161H84C80.7188 161 77.8969 159.828 75.5344 157.484C73.1906 155.122 72.0187 152.3 72.0187 149.019V131.019C72.0187 127.7 73.2 124.869 75.5625 122.525C77.925 120.162 80.7375 118.981 84 118.981ZM84 131.019V149.019C84 150.631 84.5813 152.028 85.7438 153.209C86.925 154.391 88.35 154.981 90.0188 154.981C91.6875 154.981 93.1031 154.391 94.2656 153.209C95.4469 152.028 96.0375 150.631 96.0375 149.019V131.019C96.0375 129.369 95.4375 127.953 94.2375 126.772C93.0562 125.591 91.65 125 90.0188 125C88.3687 125 86.9531 125.591 85.7719 126.772C84.5906 127.953 84 129.369 84 131.019ZM119.972 118.981H131.953V125C131.953 122.975 132.459 121.466 133.472 120.472C134.484 119.478 135.984 118.981 137.972 118.981H143.991C147.272 118.981 150.084 120.172 152.428 122.553C154.791 124.916 155.972 127.738 155.972 131.019V149.019C155.972 152.3 154.791 155.122 152.428 157.484C150.084 159.828 147.272 161 143.991 161H131.953V172.981H119.972V118.981ZM131.953 154.981H137.972C139.603 154.981 141.009 154.4 142.191 153.237C143.391 152.056 143.991 150.65 143.991 149.019V131.019C143.991 129.369 143.391 127.962 142.191 126.8C141.009 125.619 139.603 125.028 137.972 125.028C136.322 125.009 134.906 125.591 133.725 126.772C132.544 127.953 131.953 129.369 131.953 131.019V154.981ZM203.925 143H179.906V149.019C179.906 150.631 180.488 152.028 181.65 153.209C182.831 154.391 184.256 154.981 185.925 154.981H191.944C195.919 154.981 197.906 152.994 197.906 149.019H203.925C202.988 157.006 198.994 161 191.944 161H179.906C176.625 161 173.803 159.828 171.441 157.484C169.097 155.122 167.925 152.3 167.925 149.019V131.019C167.925 127.7 169.106 124.869 171.469 122.525C173.831 120.162 176.644 118.981 179.906 118.981H191.944C195.225 118.981 198.038 120.172 200.381 122.553C202.744 124.916 203.925 127.738 203.925 131.019V143ZM179.906 136.981H191.944V131.019C191.944 129.369 191.344 127.953 190.144 126.772C188.962 125.591 187.556 125 185.925 125C184.275 125 182.859 125.591 181.678 126.772C180.497 127.953 179.906 129.369 179.906 131.019V136.981ZM215.878 161V118.981H227.859V125C228.103 122.975 228.722 121.466 229.716 120.472C230.728 119.478 232.116 118.981 233.878 118.981H239.897C243.178 118.981 245.991 120.172 248.334 122.553C250.697 124.916 251.878 127.738 251.878 131.019V161H239.897V131.019C239.897 129.369 239.297 127.953 238.097 126.772C236.916 125.591 235.509 125 233.878 125C232.228 125 230.812 125.591 229.631 126.772C228.45 127.953 227.859 129.369 227.859 131.019V161H215.878ZM263.831 161V107H275.812V161H263.831ZM287.878 113.019V107H299.859V113.019H287.878ZM287.878 161V118.981H299.859V161H287.878ZM341.906 131.019H335.944C335.419 127.006 333.525 125 330.262 125C328.144 125 326.55 125.422 325.481 126.266C324.413 127.091 323.878 128.328 323.878 129.978C323.878 131.703 326.794 134.122 332.625 137.234C337.369 139.784 340.097 141.903 340.809 143.591C341.541 145.259 341.906 147.041 341.906 148.934C341.906 152.272 340.725 155.122 338.363 157.484C336.019 159.828 333.206 161 329.925 161H323.906C315.919 161 311.925 157.006 311.925 149.019H317.944C318.412 153.012 320.287 155.009 323.569 155.009C325.687 155.009 327.281 154.587 328.35 153.744C329.419 152.9 329.953 151.653 329.953 150.003C329.953 148.316 327.047 145.897 321.234 142.747C316.472 140.216 313.725 138.106 312.994 136.419C312.281 134.731 311.925 132.95 311.925 131.075C311.925 127.719 313.106 124.869 315.469 122.525C317.831 120.162 320.644 118.981 323.906 118.981H329.925C337.425 118.981 341.419 122.994 341.906 131.019ZM359.991 107H371.972V118.981H377.991V125H371.972V149.019C371.972 150.95 372.609 152.431 373.884 153.462C375.159 154.475 376.341 154.981 377.428 154.981H377.991V161H371.972C368.672 161 365.85 159.828 363.506 157.484C361.162 155.122 359.991 152.3 359.991 149.019V125H353.972V118.981H359.991V107Z" fill="black"/>
<path d="M69.9938 204V188.006H66V186H78V188.006H74.0063V204H69.9938ZM80.0062 204V186H84V192C84.0813 191.325 84.2875 190.822 84.6187 190.491C84.9562 190.159 85.4188 189.994 86.0063 189.994H88.0125C89.1063 189.994 90.0438 190.391 90.825 191.184C91.6125 191.972 92.0063 192.913 92.0063 194.006V204H88.0125V194.006C88.0125 193.456 87.8125 192.984 87.4125 192.591C87.0187 192.197 86.55 192 86.0063 192C85.4562 192 84.9844 192.197 84.5906 192.591C84.1969 192.984 84 193.456 84 194.006V204H80.0062ZM107.991 198H99.9844V200.006C99.9844 200.544 100.178 201.009 100.566 201.403C100.959 201.797 101.434 201.994 101.991 201.994H103.997C105.322 201.994 105.984 201.331 105.984 200.006H107.991C107.678 202.669 106.347 204 103.997 204H99.9844C98.8906 204 97.95 203.609 97.1625 202.828C96.3813 202.041 95.9906 201.1 95.9906 200.006V194.006C95.9906 192.9 96.3844 191.956 97.1719 191.175C97.9594 190.387 98.8969 189.994 99.9844 189.994H103.997C105.091 189.994 106.028 190.391 106.809 191.184C107.597 191.972 107.991 192.913 107.991 194.006V198ZM99.9844 195.994H103.997V194.006C103.997 193.456 103.797 192.984 103.397 192.591C103.003 192.197 102.534 192 101.991 192C101.441 192 100.969 192.197 100.575 192.591C100.181 192.984 99.9844 193.456 99.9844 194.006V195.994ZM129.834 204H125.841V201.994C125.684 203.331 125.016 204 123.834 204H121.828C120.734 204 119.794 203.609 119.006 202.828C118.225 202.041 117.834 201.1 117.834 200.006V194.006C117.834 192.9 118.228 191.956 119.016 191.175C119.803 190.387 120.741 189.994 121.828 189.994H125.841V186H129.834V204ZM125.841 192H123.834C123.284 192 122.812 192.197 122.419 192.591C122.025 192.984 121.828 193.456 121.828 194.006V200.006C121.828 200.544 122.022 201.009 122.409 201.403C122.803 201.797 123.278 201.994 123.834 201.994C124.391 201.994 124.863 201.797 125.25 201.403C125.644 201.009 125.841 200.544 125.841 200.006V192ZM145.819 198H137.812V200.006C137.812 200.544 138.006 201.009 138.394 201.403C138.788 201.797 139.263 201.994 139.819 201.994H141.825C143.15 201.994 143.812 201.331 143.812 200.006H145.819C145.506 202.669 144.175 204 141.825 204H137.812C136.719 204 135.778 203.609 134.991 202.828C134.209 202.041 133.819 201.1 133.819 200.006V194.006C133.819 192.9 134.212 191.956 135 191.175C135.788 190.387 136.725 189.994 137.812 189.994H141.825C142.919 189.994 143.856 190.391 144.638 191.184C145.425 191.972 145.819 192.913 145.819 194.006V198ZM137.812 195.994H141.825V194.006C141.825 193.456 141.625 192.984 141.225 192.591C140.831 192.197 140.362 192 139.819 192C139.269 192 138.797 192.197 138.403 192.591C138.009 192.984 137.812 193.456 137.812 194.006V195.994ZM151.809 204V192H149.803V189.994H151.809V189.816C151.809 188.934 152.184 188.078 152.934 187.247C153.684 186.416 154.641 186 155.803 186H159.797V188.006H157.716C157.197 188.006 156.747 188.212 156.366 188.625C155.991 189.037 155.803 189.434 155.803 189.816V189.994H165.797V204H161.803V192H155.803V204H151.809ZM161.803 188.006V186H165.797V188.006H161.803ZM169.819 204V189.994H173.812V192C173.894 191.325 174.1 190.822 174.431 190.491C174.769 190.159 175.231 189.994 175.819 189.994H177.825C178.919 189.994 179.856 190.391 180.638 191.184C181.425 191.972 181.819 192.913 181.819 194.006V204H177.825V194.006C177.825 193.456 177.625 192.984 177.225 192.591C176.831 192.197 176.362 192 175.819 192C175.269 192 174.797 192.197 174.403 192.591C174.009 192.984 173.812 193.456 173.812 194.006V204H169.819ZM185.803 188.006V186H189.797V188.006H185.803ZM185.803 204V189.994H189.797V204H185.803ZM195.825 186H199.819V189.994H201.825V192H199.819V200.006C199.819 200.65 200.031 201.144 200.456 201.487C200.881 201.825 201.275 201.994 201.638 201.994H201.825V204H199.819C198.719 204 197.778 203.609 196.997 202.828C196.216 202.041 195.825 201.1 195.825 200.006V192H193.819V189.994H195.825V186ZM205.819 188.006V186H209.812V188.006H205.819ZM205.819 204V189.994H209.812V204H205.819ZM221.841 189.994H225.834V197.166C225.834 199.028 225.163 200.634 223.819 201.984C222.481 203.328 220.875 204 219 204H213.834V189.994H217.828V201.994H219.834C220.391 201.994 220.863 201.797 221.25 201.403C221.644 201.009 221.841 200.544 221.841 200.006V189.994ZM241.819 198H233.812V200.006C233.812 200.544 234.006 201.009 234.394 201.403C234.788 201.797 235.263 201.994 235.819 201.994H237.825C239.15 201.994 239.812 201.331 239.812 200.006H241.819C241.506 202.669 240.175 204 237.825 204H233.812C232.719 204 231.778 203.609 230.991 202.828C230.209 202.041 229.819 201.1 229.819 200.006V194.006C229.819 192.9 230.212 191.956 231 191.175C231.788 190.387 232.725 189.994 233.812 189.994H237.825C238.919 189.994 239.856 190.391 240.638 191.184C241.425 191.972 241.819 192.913 241.819 194.006V198ZM233.812 195.994H237.825V194.006C237.825 193.456 237.625 192.984 237.225 192.591C236.831 192.197 236.362 192 235.819 192C235.269 192 234.797 192.197 234.403 192.591C234.009 192.984 233.812 193.456 233.812 194.006V195.994ZM251.662 204V186H255.656V204H251.662ZM259.678 188.006V186H263.672V188.006H259.678ZM259.678 204V189.994H263.672V204H259.678ZM277.688 194.006H275.7C275.544 192.669 274.875 192 273.694 192C273.144 192 272.672 192.197 272.278 192.591C271.884 192.984 271.688 193.456 271.688 194.006V200.006C271.688 200.544 271.881 201.009 272.269 201.403C272.663 201.797 273.138 201.994 273.694 201.994C274.875 201.994 275.544 201.331 275.7 200.006H277.688C277.525 202.669 276.194 204 273.694 204H271.688C270.594 204 269.653 203.609 268.866 202.828C268.084 202.041 267.694 201.1 267.694 200.006V194.006C267.694 192.9 268.087 191.956 268.875 191.175C269.663 190.387 270.6 189.994 271.688 189.994H273.694C276.206 189.994 277.537 191.331 277.688 194.006ZM293.709 198H285.703V200.006C285.703 200.544 285.897 201.009 286.284 201.403C286.678 201.797 287.153 201.994 287.709 201.994H289.716C291.041 201.994 291.703 201.331 291.703 200.006H293.709C293.397 202.669 292.066 204 289.716 204H285.703C284.609 204 283.669 203.609 282.881 202.828C282.1 202.041 281.709 201.1 281.709 200.006V194.006C281.709 192.9 282.103 191.956 282.891 191.175C283.678 190.387 284.616 189.994 285.703 189.994H289.716C290.809 189.994 291.747 190.391 292.528 191.184C293.316 191.972 293.709 192.913 293.709 194.006V198ZM285.703 195.994H289.716V194.006C289.716 193.456 289.516 192.984 289.116 192.591C288.722 192.197 288.253 192 287.709 192C287.159 192 286.688 192.197 286.294 192.591C285.9 192.984 285.703 193.456 285.703 194.006V195.994ZM297.694 204V189.994H301.688V192C301.769 191.325 301.975 190.822 302.306 190.491C302.644 190.159 303.106 189.994 303.694 189.994H305.7C306.794 189.994 307.731 190.391 308.513 191.184C309.3 191.972 309.694 192.913 309.694 194.006V204H305.7V194.006C305.7 193.456 305.5 192.984 305.1 192.591C304.706 192.197 304.237 192 303.694 192C303.144 192 302.672 192.197 302.278 192.591C301.884 192.984 301.688 193.456 301.688 194.006V204H297.694ZM323.672 194.006H321.684C321.509 192.669 320.878 192 319.791 192C319.084 192 318.553 192.141 318.197 192.422C317.841 192.697 317.663 193.109 317.663 193.659C317.663 194.234 318.634 195.041 320.578 196.078C322.159 196.928 323.069 197.634 323.306 198.197C323.55 198.753 323.672 199.347 323.672 199.978C323.672 201.091 323.278 202.041 322.491 202.828C321.709 203.609 320.772 204 319.678 204H317.672C315.009 204 313.678 202.669 313.678 200.006H315.684C315.841 201.337 316.466 202.003 317.559 202.003C318.266 202.003 318.797 201.862 319.153 201.581C319.509 201.3 319.688 200.884 319.688 200.334C319.688 199.772 318.719 198.966 316.781 197.916C315.194 197.072 314.278 196.369 314.034 195.806C313.797 195.244 313.678 194.65 313.678 194.025C313.678 192.906 314.072 191.956 314.859 191.175C315.647 190.387 316.584 189.994 317.672 189.994H319.678C322.178 189.994 323.509 191.331 323.672 194.006ZM339.694 198H331.688V200.006C331.688 200.544 331.881 201.009 332.269 201.403C332.663 201.797 333.138 201.994 333.694 201.994H335.7C337.025 201.994 337.688 201.331 337.688 200.006H339.694C339.381 202.669 338.05 204 335.7 204H331.688C330.594 204 329.653 203.609 328.866 202.828C328.084 202.041 327.694 201.1 327.694 200.006V194.006C327.694 192.9 328.087 191.956 328.875 191.175C329.663 190.387 330.6 189.994 331.688 189.994H335.7C336.794 189.994 337.731 190.391 338.513 191.184C339.3 191.972 339.694 192.913 339.694 194.006V198ZM331.688 195.994H335.7V194.006C335.7 193.456 335.5 192.984 335.1 192.591C334.706 192.197 334.237 192 333.694 192C333.144 192 332.672 192.197 332.278 192.591C331.884 192.984 331.688 193.456 331.688 194.006V195.994ZM349.537 204V186H353.531V204H349.537ZM357.553 188.006V186H361.547V188.006H357.553ZM357.553 204V189.994H361.547V204H357.553ZM375.562 194.006H373.575C373.4 192.669 372.769 192 371.681 192C370.975 192 370.444 192.141 370.087 192.422C369.731 192.697 369.553 193.109 369.553 193.659C369.553 194.234 370.525 195.041 372.469 196.078C374.05 196.928 374.959 197.634 375.197 198.197C375.441 198.753 375.562 199.347 375.562 199.978C375.562 201.091 375.169 202.041 374.381 202.828C373.6 203.609 372.663 204 371.569 204H369.562C366.9 204 365.569 202.669 365.569 200.006H367.575C367.731 201.337 368.356 202.003 369.45 202.003C370.156 202.003 370.688 201.862 371.044 201.581C371.4 201.3 371.578 200.884 371.578 200.334C371.578 199.772 370.609 198.966 368.672 197.916C367.084 197.072 366.169 196.369 365.925 195.806C365.688 195.244 365.569 194.65 365.569 194.025C365.569 192.906 365.962 191.956 366.75 191.175C367.538 190.387 368.475 189.994 369.562 189.994H371.569C374.069 189.994 375.4 191.331 375.562 194.006ZM381.591 186H385.584V189.994H387.591V192H385.584V200.006C385.584 200.65 385.797 201.144 386.222 201.487C386.647 201.825 387.041 201.994 387.403 201.994H387.591V204H385.584C384.484 204 383.544 203.609 382.762 202.828C381.981 202.041 381.591 201.1 381.591 200.006V192H379.584V189.994H381.591V186ZM399.45 204V192H397.444V189.994H399.45V189.816C399.45 188.772 399.825 187.875 400.575 187.125C401.325 186.375 402.222 186 403.266 186H407.438V188.006H405.263C404.763 188.006 404.334 188.187 403.978 188.55C403.622 188.906 403.444 189.328 403.444 189.816V189.994H405.45V192H403.444V204H399.45ZM413.438 189.994H417.45C418.544 189.994 419.481 190.391 420.263 191.184C421.05 191.972 421.444 192.913 421.444 194.006V200.006C421.444 201.087 421.05 202.025 420.263 202.819C419.481 203.606 418.544 204 417.45 204H413.438C412.344 204 411.403 203.609 410.616 202.828C409.834 202.041 409.444 201.1 409.444 200.006V194.006C409.444 192.9 409.837 191.956 410.625 191.175C411.413 190.387 412.35 189.994 413.438 189.994ZM413.438 194.006V200.006C413.438 200.544 413.631 201.009 414.019 201.403C414.413 201.797 414.888 201.994 415.444 201.994C416 201.994 416.472 201.797 416.859 201.403C417.253 201.009 417.45 200.544 417.45 200.006V194.006C417.45 193.456 417.25 192.984 416.85 192.591C416.456 192.197 415.987 192 415.444 192C414.894 192 414.422 192.197 414.028 192.591C413.634 192.984 413.438 193.456 413.438 194.006ZM429.422 204H425.428V189.994H429.422V194.006C429.578 192.669 429.991 191.666 430.659 190.997C431.328 190.328 432.253 189.994 433.434 189.994H435.422V194.006H431.428C430.878 194.006 430.406 194.203 430.013 194.597C429.619 194.984 429.422 195.45 429.422 195.994V204ZM70.0125 217H74.0063V220.994H76.0125V223H74.0063V231.006C74.0063 231.65 74.2188 232.144 74.6438 232.487C75.0688 232.825 75.4625 232.994 75.825 232.994H76.0125V235H74.0063C72.9063 235 71.9656 234.609 71.1844 233.828C70.4031 233.041 70.0125 232.1 70.0125 231.006V223H68.0062V220.994H70.0125V217ZM80.0062 235V217H84V223C84.0813 222.325 84.2875 221.822 84.6187 221.491C84.9562 221.159 85.4188 220.994 86.0063 220.994H88.0125C89.1063 220.994 90.0438 221.391 90.825 222.184C91.6125 222.972 92.0063 223.913 92.0063 225.006V235H88.0125V225.006C88.0125 224.456 87.8125 223.984 87.4125 223.591C87.0187 223.197 86.55 223 86.0063 223C85.4562 223 84.9844 223.197 84.5906 223.591C84.1969 223.984 84 224.456 84 225.006V235H80.0062ZM107.991 229H99.9844V231.006C99.9844 231.544 100.178 232.009 100.566 232.403C100.959 232.797 101.434 232.994 101.991 232.994H103.997C105.322 232.994 105.984 232.331 105.984 231.006H107.991C107.678 233.669 106.347 235 103.997 235H99.9844C98.8906 235 97.95 234.609 97.1625 233.828C96.3813 233.041 95.9906 232.1 95.9906 231.006V225.006C95.9906 223.9 96.3844 222.956 97.1719 222.175C97.9594 221.387 98.8969 220.994 99.9844 220.994H103.997C105.091 220.994 106.028 221.391 106.809 222.184C107.597 222.972 107.991 223.913 107.991 225.006V229ZM99.9844 226.994H103.997V225.006C103.997 224.456 103.797 223.984 103.397 223.591C103.003 223.197 102.534 223 101.991 223C101.441 223 100.969 223.197 100.575 223.591C100.181 223.984 99.9844 224.456 99.9844 225.006V226.994ZM121.828 220.994H125.841C126.934 220.994 127.872 221.391 128.653 222.184C129.441 222.972 129.834 223.913 129.834 225.006V231.006C129.834 232.087 129.441 233.025 128.653 233.819C127.872 234.606 126.934 235 125.841 235H121.828C120.734 235 119.794 234.609 119.006 233.828C118.225 233.041 117.834 232.1 117.834 231.006V225.006C117.834 223.9 118.228 222.956 119.016 222.175C119.803 221.387 120.741 220.994 121.828 220.994ZM121.828 225.006V231.006C121.828 231.544 122.022 232.009 122.409 232.403C122.803 232.797 123.278 232.994 123.834 232.994C124.391 232.994 124.863 232.797 125.25 232.403C125.644 232.009 125.841 231.544 125.841 231.006V225.006C125.841 224.456 125.641 223.984 125.241 223.591C124.847 223.197 124.378 223 123.834 223C123.284 223 122.812 223.197 122.419 223.591C122.025 223.984 121.828 224.456 121.828 225.006ZM133.819 220.994H137.812V223C137.812 222.325 137.981 221.822 138.319 221.491C138.656 221.159 139.156 220.994 139.819 220.994H141.825C142.919 220.994 143.856 221.391 144.638 222.184C145.425 222.972 145.819 223.913 145.819 225.006V231.006C145.819 232.1 145.425 233.041 144.638 233.828C143.856 234.609 142.919 235 141.825 235H137.812V238.994H133.819V220.994ZM137.812 232.994H139.819C140.362 232.994 140.831 232.8 141.225 232.412C141.625 232.019 141.825 231.55 141.825 231.006V225.006C141.825 224.456 141.625 223.987 141.225 223.6C140.831 223.206 140.362 223.009 139.819 223.009C139.269 223.003 138.797 223.197 138.403 223.591C138.009 223.984 137.812 224.456 137.812 225.006V232.994ZM161.803 229H153.797V231.006C153.797 231.544 153.991 232.009 154.378 232.403C154.772 232.797 155.247 232.994 155.803 232.994H157.809C159.134 232.994 159.797 232.331 159.797 231.006H161.803C161.491 233.669 160.159 235 157.809 235H153.797C152.703 235 151.763 234.609 150.975 233.828C150.194 233.041 149.803 232.1 149.803 231.006V225.006C149.803 223.9 150.197 222.956 150.984 222.175C151.772 221.387 152.709 220.994 153.797 220.994H157.809C158.903 220.994 159.841 221.391 160.622 222.184C161.409 222.972 161.803 223.913 161.803 225.006V229ZM153.797 226.994H157.809V225.006C157.809 224.456 157.609 223.984 157.209 223.591C156.816 223.197 156.347 223 155.803 223C155.253 223 154.781 223.197 154.388 223.591C153.994 223.984 153.797 224.456 153.797 225.006V226.994ZM165.787 235V220.994H169.781V223C169.863 222.325 170.069 221.822 170.4 221.491C170.737 221.159 171.2 220.994 171.788 220.994H173.794C174.888 220.994 175.825 221.391 176.606 222.184C177.394 222.972 177.788 223.913 177.788 225.006V235H173.794V225.006C173.794 224.456 173.594 223.984 173.194 223.591C172.8 223.197 172.331 223 171.788 223C171.237 223 170.766 223.197 170.372 223.591C169.978 223.984 169.781 224.456 169.781 225.006V235H165.787ZM181.772 229V226.994H191.766V229H181.772ZM205.781 225.006H203.794C203.619 223.669 202.987 223 201.9 223C201.194 223 200.663 223.141 200.306 223.422C199.95 223.697 199.772 224.109 199.772 224.659C199.772 225.234 200.744 226.041 202.688 227.078C204.269 227.928 205.178 228.634 205.416 229.197C205.659 229.753 205.781 230.347 205.781 230.978C205.781 232.091 205.388 233.041 204.6 233.828C203.819 234.609 202.881 235 201.788 235H199.781C197.119 235 195.787 233.669 195.787 231.006H197.794C197.95 232.337 198.575 233.003 199.669 233.003C200.375 233.003 200.906 232.862 201.263 232.581C201.619 232.3 201.797 231.884 201.797 231.334C201.797 230.772 200.828 229.966 198.891 228.916C197.303 228.072 196.388 227.369 196.144 226.806C195.906 226.244 195.787 225.65 195.787 225.025C195.787 223.906 196.181 222.956 196.969 222.175C197.756 221.387 198.694 220.994 199.781 220.994H201.788C204.288 220.994 205.619 222.331 205.781 225.006ZM213.797 220.994H217.809C218.903 220.994 219.841 221.391 220.622 222.184C221.409 222.972 221.803 223.913 221.803 225.006V231.006C221.803 232.087 221.409 233.025 220.622 233.819C219.841 234.606 218.903 235 217.809 235H213.797C212.703 235 211.763 234.609 210.975 233.828C210.194 233.041 209.803 232.1 209.803 231.006V225.006C209.803 223.9 210.197 222.956 210.984 222.175C211.772 221.387 212.709 220.994 213.797 220.994ZM213.797 225.006V231.006C213.797 231.544 213.991 232.009 214.378 232.403C214.772 232.797 215.247 232.994 215.803 232.994C216.359 232.994 216.831 232.797 217.219 232.403C217.613 232.009 217.809 231.544 217.809 231.006V225.006C217.809 224.456 217.609 223.984 217.209 223.591C216.816 223.197 216.347 223 215.803 223C215.253 223 214.781 223.197 214.388 223.591C213.994 223.984 213.797 224.456 213.797 225.006ZM237.788 220.994V235H233.794V232.994C233.638 234.331 232.969 235 231.788 235H229.781C228.688 235 227.747 234.609 226.959 233.828C226.178 233.041 225.787 232.1 225.787 231.006V220.994H229.781V231.006C229.781 231.544 229.975 232.009 230.363 232.403C230.756 232.797 231.231 232.994 231.788 232.994C232.344 232.994 232.816 232.797 233.203 232.403C233.597 232.009 233.794 231.544 233.794 231.006V220.994H237.788ZM245.766 235H241.772V220.994H245.766V225.006C245.922 223.669 246.334 222.666 247.003 221.997C247.672 221.328 248.597 220.994 249.778 220.994H251.766V225.006H247.772C247.222 225.006 246.75 225.203 246.356 225.597C245.963 225.984 245.766 226.45 245.766 226.994V235ZM263.766 225.006H261.778C261.622 223.669 260.953 223 259.772 223C259.222 223 258.75 223.197 258.356 223.591C257.963 223.984 257.766 224.456 257.766 225.006V231.006C257.766 231.544 257.959 232.009 258.347 232.403C258.741 232.797 259.216 232.994 259.772 232.994C260.953 232.994 261.622 232.331 261.778 231.006H263.766C263.603 233.669 262.272 235 259.772 235H257.766C256.672 235 255.731 234.609 254.944 233.828C254.163 233.041 253.772 232.1 253.772 231.006V225.006C253.772 223.9 254.166 222.956 254.953 222.175C255.741 221.387 256.678 220.994 257.766 220.994H259.772C262.284 220.994 263.616 222.331 263.766 225.006ZM279.788 229H271.781V231.006C271.781 231.544 271.975 232.009 272.363 232.403C272.756 232.797 273.231 232.994 273.788 232.994H275.794C277.119 232.994 277.781 232.331 277.781 231.006H279.788C279.475 233.669 278.144 235 275.794 235H271.781C270.688 235 269.747 234.609 268.959 233.828C268.178 233.041 267.787 232.1 267.787 231.006V225.006C267.787 223.9 268.181 222.956 268.969 222.175C269.756 221.387 270.694 220.994 271.781 220.994H275.794C276.888 220.994 277.825 221.391 278.606 222.184C279.394 222.972 279.788 223.913 279.788 225.006V229ZM271.781 226.994H275.794V225.006C275.794 224.456 275.594 223.984 275.194 223.591C274.8 223.197 274.331 223 273.788 223C273.237 223 272.766 223.197 272.372 223.591C271.978 223.984 271.781 224.456 271.781 225.006V226.994ZM289.631 220.994H293.625V232.994H295.631C296.188 232.994 296.659 232.797 297.047 232.403C297.441 232.009 297.638 231.544 297.638 231.006V220.994H301.631V232.994H303.638C304.181 232.994 304.647 232.797 305.034 232.403C305.428 232.009 305.625 231.544 305.625 231.006V220.994H309.638V228.166C309.638 230.028 308.966 231.634 307.622 232.984C306.284 234.328 304.678 235 302.803 235H297.638V234.362C296.869 234.787 295.922 235 294.797 235H289.631V220.994ZM317.625 220.994H321.638C322.731 220.994 323.669 221.391 324.45 222.184C325.238 222.972 325.631 223.913 325.631 225.006V231.006C325.631 232.087 325.238 233.025 324.45 233.819C323.669 234.606 322.731 235 321.638 235H317.625C316.531 235 315.591 234.609 314.803 233.828C314.022 233.041 313.631 232.1 313.631 231.006V225.006C313.631 223.9 314.025 222.956 314.812 222.175C315.6 221.387 316.538 220.994 317.625 220.994ZM317.625 225.006V231.006C317.625 231.544 317.819 232.009 318.206 232.403C318.6 232.797 319.075 232.994 319.631 232.994C320.188 232.994 320.659 232.797 321.047 232.403C321.441 232.009 321.638 231.544 321.638 231.006V225.006C321.638 224.456 321.438 223.984 321.038 223.591C320.644 223.197 320.175 223 319.631 223C319.081 223 318.609 223.197 318.216 223.591C317.822 223.984 317.625 224.456 317.625 225.006ZM333.609 235H329.616V220.994H333.609V225.006C333.766 223.669 334.178 222.666 334.847 221.997C335.516 221.328 336.441 220.994 337.622 220.994H339.609V225.006H335.616C335.066 225.006 334.594 225.203 334.2 225.597C333.806 225.984 333.609 226.45 333.609 226.994V235ZM341.616 235V217H345.609V235H341.616ZM361.631 235H357.638V232.994C357.481 234.331 356.813 235 355.631 235H353.625C352.531 235 351.591 234.609 350.803 233.828C350.022 233.041 349.631 232.1 349.631 231.006V225.006C349.631 223.9 350.025 222.956 350.812 222.175C351.6 221.387 352.538 220.994 353.625 220.994H357.638V217H361.631V235ZM357.638 223H355.631C355.081 223 354.609 223.197 354.216 223.591C353.822 223.984 353.625 224.456 353.625 225.006V231.006C353.625 231.544 353.819 232.009 354.206 232.403C354.6 232.797 355.075 232.994 355.631 232.994C356.188 232.994 356.659 232.797 357.047 232.403C357.441 232.009 357.638 231.544 357.638 231.006V223ZM365.616 235V231.006H369.609V235H365.616Z" fill="black"/>
<path d="M78.3068 73.3659H83.9943H85.5455H91.233V74.8293H85.5455H83.9943H78.3068V73.3659Z" fill="#0F006C"/>
<path d="M93.3012 71.9024H100.54V73.3659H93.3012V71.9024Z" fill="#0F006C"/>
<path d="M93.3012 74.8293H99.5057V76.2927H93.3012V74.8293Z" fill="#0F006C"/>
<path d="M92.7841 77.7561H98.4716V79.2195H92.7841V77.7561Z" fill="#0F006C"/>
<path d="M76.2386 71.9024H69V73.3659H76.2386V71.9024Z" fill="#0F006C"/>
<path d="M76.2386 74.8293H70.0341V76.2927H76.2386V74.8293Z" fill="#0F006C"/>
<path d="M76.7557 77.7561H71.0682V79.2195H76.7557V77.7561Z" fill="#0F006C"/>
<path d="M115.71 84.359H118.144V85.561H111.092V84.359H113.162V71.7385H111.092V70.5366H123.399V74.0566H121.943V72.2107L121.488 71.7385H115.71V77.6195H119.828L120.169 77.2976V76.2673H121.625V80.1951H120.169V79.1649L119.828 78.8215H115.71V84.359Z" fill="#0F006C"/>
<path d="M125.266 71.7385V70.5366H127.632C128.315 70.5366 129.05 70.508 129.839 70.4507C130.643 70.3935 131.416 70.3649 132.159 70.3649C132.993 70.3649 133.812 70.4436 134.616 70.601C135.42 70.7441 136.133 70.9945 136.755 71.3522C137.377 71.7099 137.877 72.1893 138.256 72.7902C138.651 73.3769 138.848 74.1138 138.848 75.001C138.848 75.8452 138.651 76.575 138.256 77.1902C137.862 77.7912 137.339 78.2849 136.687 78.6712C136.05 79.0576 135.306 79.3437 134.457 79.5298C133.623 79.7158 132.758 79.8088 131.864 79.8088C131.773 79.8088 131.636 79.8088 131.454 79.8088C131.272 79.8088 131.075 79.8088 130.863 79.8088C130.665 79.7945 130.476 79.7802 130.294 79.7659C130.112 79.7515 129.975 79.7372 129.884 79.7229V84.359H132.159V85.561H125.266V84.359H127.336V71.7385H125.266ZM129.884 78.4995C129.96 78.5281 130.074 78.5496 130.226 78.5639C130.392 78.5639 130.567 78.5711 130.749 78.5854C130.931 78.5997 131.105 78.6068 131.272 78.6068C131.454 78.6068 131.591 78.6068 131.682 78.6068C132.273 78.6068 132.827 78.5424 133.342 78.4137C133.873 78.2706 134.336 78.0559 134.73 77.7698C135.124 77.4836 135.435 77.1115 135.663 76.6537C135.89 76.1958 136.004 75.6449 136.004 75.001C136.004 73.8276 135.61 72.962 134.821 72.4039C134.048 71.8459 132.986 71.5668 131.636 71.5668C131.227 71.5668 130.885 71.5811 130.612 71.6098C130.339 71.6241 130.097 71.6527 129.884 71.6956V78.4995Z" fill="#0F006C"/>
<path d="M143.397 85.561H137.824V84.359H139.598L145.49 70.5366H147.902L153.294 84.359H155V85.561H148.493V84.359H150.518L149.039 80.5815H142.988L141.441 84.359H143.397V85.561ZM143.511 79.3795H148.653L146.787 74.4215L146.218 72.1463H146.127L145.468 74.4644L143.511 79.3795Z" fill="#0F006C"/>
<path d="M85.5455 77.7561H83.9943V79.2195H85.5455V77.7561Z" fill="#0F006C"/>
<path fill-rule="evenodd" clip-rule="evenodd" d="M84.7699 68C83.827 68 82.2515 68.3312 80.7689 68.7C79.4445 69.0334 78.1291 69.396 76.8238 69.7875C76.4479 69.9011 76.1146 70.1093 75.8623 70.3884C75.6099 70.6674 75.4487 71.0059 75.3972 71.365C74.5828 76.9613 76.4727 81.1088 78.7656 83.8525C79.738 85.0262 80.8974 86.0598 82.205 86.9187C82.6572 87.216 83.1363 87.4773 83.6371 87.7C84.0211 87.865 84.431 88 84.7699 88C85.1088 88 85.5201 87.865 85.9027 87.7C86.4035 87.4773 86.8826 87.216 87.3348 86.9187C88.6425 86.0598 89.8019 85.0262 90.7742 83.8525C93.0672 81.1088 94.957 76.9613 94.1426 71.365C94.0911 71.0059 93.9299 70.6674 93.6776 70.3884C93.4252 70.1093 93.0919 69.9011 92.716 69.7875C91.8168 69.5187 90.2878 69.075 88.771 68.7C87.2883 68.3312 85.7128 68 84.7699 68ZM83.9943 77.7561H85.5455V79.2195H83.9943V77.7561ZM83.9943 77.7561V74.8293H78.3068V73.3659H83.9943V69.5245C83.2463 69.6244 82.3118 69.8344 81.4177 70.061C80.3081 70.3456 79.206 70.6551 78.1124 70.9893C77.7974 71.0863 77.5182 71.2641 77.3068 71.5023C77.0953 71.7405 76.9603 72.0294 76.9171 72.336C76.2348 77.1133 77.8182 80.6538 79.7393 82.996C80.554 83.998 81.5253 84.8803 82.621 85.6136C82.9998 85.8673 83.4012 86.0904 83.8208 86.2805C83.8781 86.3056 83.9361 86.3299 83.9943 86.3528V79.2195H79.3409V77.7561H83.9943ZM85.5455 79.2195V86.353C85.6038 86.33 85.6618 86.3056 85.719 86.2805C86.1386 86.0904 86.54 85.8673 86.9189 85.6136C88.0145 84.8803 88.9859 83.998 89.8005 82.996C91.7217 80.6538 93.305 77.1133 92.6227 72.336C92.5795 72.0294 92.4445 71.7405 92.2331 71.5023C92.0216 71.2641 91.7424 71.0863 91.4274 70.9893C90.6741 70.7599 89.393 70.3811 88.1221 70.061C87.228 69.8344 86.2936 69.6244 85.5455 69.5245V73.3659H91.233V74.8293H85.5455V77.7561H90.1989V79.2195H85.5455Z" fill="#0F006C"/>
<path d="M819.284 -68.4215L858.391 34.8903L826.305 127.833L760.876 180.339L712.142 248.132L680.622 326.596L681.972 407.619C681.972 407.619 731.246 472.832 732.312 479.694" stroke="#3758CC" stroke-width="70" stroke-linecap="round"/>
<path d="M749.641 -69L817.737 17.5594L815.507 115.938L769.601 185.935L744.066 265.415L738 349.818L763.73 426.641C763.73 426.641 829.923 473.784 833 480" stroke="#EDB14F" stroke-width="50" stroke-linecap="round"/>
</g>
<defs>
<clipPath id="clip0_4_2">
<rect width="920" height="300" rx="10" fill="white"/>
</clipPath>
</defs>
</svg>
